<svg id="Layer_1" data-name="Layer 1" xmlns="http://www.w3.org/2000/svg" xmlns:xlink="http://www.w3.org/1999/xlink" viewBox="0 0 759.27 105.85"><defs><style>.cls-1{fill:none;}.cls-2{clip-path:url(#clip-path);}.cls-3{fill:#adc97d;}.cls-4{fill:#aec87c;}.cls-5{fill:#adc77a;}.cls-6{fill:#acc67a;}.cls-7{fill:#abc679;}.cls-8{fill:#a9c479;}.cls-9{fill:#a8c378;}.cls-10{fill:#a7c377;}.cls-11{fill:#a7c177;}.cls-12{fill:#a6c076;}.cls-13{fill:#a5bf75;}.cls-14{clip-path:url(#clip-path-2);}.cls-15{fill:#a3be75;}.cls-16{fill:#a2bc74;}.cls-17{clip-path:url(#clip-path-3);}.cls-18{fill:#9cb76f;}.cls-19{fill:#9bb56d;}.cls-20{fill:#9ab46d;}.cls-21{fill:#9ab36c;}.cls-22{fill:#99b26c;}.cls-23{fill:#98b16a;}.cls-24{fill:#a1bb72;}.cls-25{fill:#a0ba72;}.cls-26{fill:#9fb971;}.cls-27{fill:#9eb871;}.cls-28{fill:#9db76f;}.cls-29{clip-path:url(#clip-path-4);}.cls-30{fill:#96af69;}.cls-31{fill:#95ae68;}.cls-32{fill:#94ad68;}.cls-33{fill:#93ac67;}.cls-34{fill:#92ab65;}.cls-35{fill:#91aa64;}.cls-36{fill:#90a965;}.cls-37{fill:#8fa864;}.cls-38{fill:#8ea763;}.cls-39{fill:#8da662;}.cls-40{fill:#8ca562;}.cls-41{fill:#8ba461;}.cls-42{fill:#8aa360;}.cls-43{fill:#89a25f;}.cls-44{fill:#88a15e;}.cls-45{fill:#87a05e;}.cls-46{clip-path:url(#clip-path-5);}.cls-47{fill:#849d5a;}.cls-48{fill:#839b5a;}.cls-49{fill:#829a59;}.cls-50{fill:#819958;}.cls-51{fill:#819857;}.cls-52{fill:#7f9756;}.cls-53{fill:#7f9656;}.cls-54{fill:#7e9555;}.cls-55{fill:#7c9454;}.cls-56{fill:#7c9253;}.cls-57{fill:#7b9152;}.cls-58{fill:#7a9151;}.cls-59{fill:#798f51;}.cls-60{fill:#788f50;}.cls-61{fill:#778e4f;}.cls-62{fill:#768c4e;}.cls-63{fill:#758c4d;}.cls-64{fill:#748a4d;}.cls-65{fill:#73894c;}.cls-66{fill:#73894b;}.cls-67{fill:#72884a;}.cls-68{fill:#718649;}.cls-69{fill:#708549;}.cls-70{fill:#6f8548;}.cls-71{fill:#6e8347;}.cls-72{fill:#6c8246;}.cls-73{fill:#6c8245;}.cls-74{fill:#6b8145;}.cls-75{fill:#6a8044;}.cls-76{fill:#697f44;}.cls-77{clip-path:url(#clip-path-6);}.cls-78{fill:#b8d382;}.cls-79{fill:#b7d282;}.cls-80{fill:#b5d081;}.cls-81{fill:#b4d081;}.cls-82{fill:#b3cf80;}.cls-83{fill:#b3ce7f;}.cls-84{fill:#b2cd7f;}.cls-85{fill:#b0cc7e;}.cls-86{fill:#afcb7d;}.cls-87{fill:#aeca7c;}.cls-88{clip-path:url(#clip-path-7);}.cls-89{fill:url(#linear-gradient);}.cls-90{fill:url(#linear-gradient-2);}.cls-91{fill:url(#linear-gradient-3);}.cls-92{fill:url(#linear-gradient-4);}.cls-93{fill:url(#linear-gradient-5);}.cls-94{fill:url(#linear-gradient-6);}.cls-95{fill:url(#linear-gradient-7);}</style><clipPath id="clip-path" transform="translate(-19.91 -22.78)"><path class="cls-1" d="M170.45,66.34H271.54c6.94,0,11.36-6.35,11.36-12.1s-4.42-12-11.36-12H170.45V23.54H271.54c21.4,0,31.88,17.71,31.88,30.7,0,11.66-7.23,25.23-23.32,29.66l-1,.29,25.38,43.54H281.13L256.19,85.08H191.11v42.65H170.45Z"/></clipPath><clipPath id="clip-path-2" transform="translate(-19.91 -22.78)"><path class="cls-1" d="M334.69,23.69v104H314v-104Z"/></clipPath><clipPath id="clip-path-3" transform="translate(-19.91 -22.78)"><path class="cls-1" d="M354,23.69h20.66V76.37L455,23.69h35L374.68,99.39v28.49H354Zm67.89,59.47,16.67-10.92,50,55.64H462Z"/></clipPath><clipPath id="clip-path-4" transform="translate(-19.91 -22.78)"><path class="cls-1" d="M502.47,56.6c0-14,11.36-32.91,34.09-32.91H601.2c22.72,0,34.09,18.89,34.09,32.91V94.82c0,14-11.37,33.06-34.09,33.06H536.56a34.93,34.93,0,0,1-29.37-16.09l-1.62-2.66H601.2c8.41,0,13.57-7.52,13.57-14.31V56.6c0-6.79-5.16-14.32-13.57-14.32H536.56c-8.41,0-13.58,7.53-13.58,14.32V96.3H502.47Z"/></clipPath><clipPath id="clip-path-5" transform="translate(-19.91 -22.78)"><path class="cls-1" d="M645.46,127.73V33.13a10,10,0,0,1,10.33-9.44,11.32,11.32,0,0,1,6.79,2.21l95.33,72.61V23.69h20.51v94.59a9.88,9.88,0,0,1-10.33,9.45,10.55,10.55,0,0,1-6.64-2.22l-95.33-72.6v74.82Z"/></clipPath><clipPath id="clip-path-6" transform="translate(-19.91 -22.78)"><rect class="cls-1" x="20.67" y="23.54" width="132.83" height="18.6"/></clipPath><clipPath id="clip-path-7" transform="translate(-19.91 -22.78)"><polygon class="cls-1" points="76.76 42.14 97.41 62.79 97.41 127.73 76.76 127.73 76.76 42.14"/></clipPath><linearGradient id="linear-gradient" x1="87.08" y1="127.88" x2="87.08" y2="23.54" gradientUnits="userSpaceOnUse"><stop offset="0.13" stop-color="#697f44"/><stop offset="0.14" stop-color="#d3e4d0"/><stop offset="0.37" stop-color="#8fa864"/><stop offset="0.71" stop-color="#d3e4d0"/><stop offset="0.72" stop-color="#b8d382"/></linearGradient><linearGradient id="linear-gradient-2" x1="87.08" y1="127.88" x2="87.08" y2="23.54" xlink:href="#linear-gradient"/><linearGradient id="linear-gradient-3" x1="237.73" y1="127.88" x2="237.73" y2="23.54" xlink:href="#linear-gradient"/><linearGradient id="linear-gradient-4" x1="324.36" y1="127.88" x2="324.36" y2="23.54" xlink:href="#linear-gradient"/><linearGradient id="linear-gradient-5" x1="422.87" y1="127.88" x2="422.87" y2="23.54" xlink:href="#linear-gradient"/><linearGradient id="linear-gradient-6" x1="568.88" y1="127.88" x2="568.88" y2="23.54" xlink:href="#linear-gradient"/><linearGradient id="linear-gradient-7" x1="711.94" y1="127.88" x2="711.94" y2="23.54" xlink:href="#linear-gradient"/></defs><g class="cls-2"><rect class="cls-3" x="150.54" y="0.76" width="1.13" height="104.19"/><rect class="cls-4" x="151.67" y="0.76" width="13.72" height="104.19"/><rect class="cls-5" x="165.39" y="0.76" width="13.72" height="104.19"/><rect class="cls-6" x="179.11" y="0.76" width="13.72" height="104.19"/><rect class="cls-7" x="192.83" y="0.76" width="13.72" height="104.19"/><rect class="cls-8" x="206.55" y="0.76" width="13.72" height="104.19"/><rect class="cls-9" x="220.27" y="0.76" width="13.72" height="104.19"/><rect class="cls-10" x="233.99" y="0.76" width="13.72" height="104.19"/><rect class="cls-11" x="247.71" y="0.76" width="13.72" height="104.19"/><rect class="cls-12" x="261.43" y="0.76" width="13.72" height="104.19"/><rect class="cls-13" x="275.15" y="0.76" width="9.39" height="104.19"/></g><g class="cls-14"><rect class="cls-15" x="294.12" y="0.91" width="8.46" height="104.04"/><rect class="cls-16" x="302.59" y="0.91" width="12.19" height="104.04"/></g><g class="cls-17"><rect class="cls-18" x="402" y="49.46" width="10.35" height="55.64"/><rect class="cls-19" x="412.34" y="49.46" width="13.72" height="55.64"/><rect class="cls-20" x="426.06" y="49.46" width="13.72" height="55.64"/><rect class="cls-21" x="439.78" y="49.46" width="13.72" height="55.64"/><rect class="cls-22" x="453.5" y="49.46" width="13.72" height="55.64"/><rect class="cls-23" x="467.22" y="49.46" width="1.48" height="55.64"/><rect class="cls-24" x="334.11" y="0.91" width="9.64" height="104.19"/><rect class="cls-25" x="343.75" y="0.91" width="13.72" height="104.19"/><rect class="cls-26" x="357.47" y="0.91" width="13.72" height="104.19"/><rect class="cls-27" x="371.19" y="0.91" width="13.72" height="104.19"/><rect class="cls-28" x="384.91" y="0.91" width="13.72" height="104.19"/><rect class="cls-18" x="398.62" y="0.91" width="13.72" height="104.19"/><rect class="cls-19" x="412.34" y="0.91" width="13.72" height="104.19"/><rect class="cls-20" x="426.06" y="0.91" width="13.72" height="104.19"/><rect class="cls-21" x="439.78" y="0.91" width="13.72" height="104.19"/><rect class="cls-22" x="453.5" y="0.91" width="13.72" height="104.19"/><rect class="cls-23" x="467.22" y="0.91" width="2.8" height="104.19"/></g><g class="cls-29"><rect class="cls-30" x="482.56" y="0.91" width="12.1" height="104.19"/><rect class="cls-31" x="494.66" y="0.91" width="13.72" height="104.19"/><rect class="cls-32" x="508.38" y="0.91" width="13.72" height="104.19"/><rect class="cls-33" x="522.1" y="0.91" width="13.72" height="104.19"/><rect class="cls-34" x="535.82" y="0.91" width="13.72" height="104.19"/><rect class="cls-35" x="549.54" y="0.91" width="13.72" height="104.19"/><rect class="cls-36" x="563.26" y="0.91" width="13.72" height="104.19"/><rect class="cls-37" x="576.98" y="0.91" width="13.72" height="104.19"/><rect class="cls-37" x="590.7" y="0.91" width="2.9" height="104.19"/><rect class="cls-38" x="593.6" y="0.91" width="2.9" height="104.19"/><rect class="cls-39" x="596.49" y="0.91" width="2.9" height="104.19"/><rect class="cls-40" x="599.39" y="0.91" width="2.9" height="104.19"/><rect class="cls-41" x="602.29" y="0.91" width="2.9" height="104.19"/><rect class="cls-42" x="605.19" y="0.91" width="2.9" height="104.19"/><rect class="cls-43" x="608.09" y="0.91" width="2.9" height="104.19"/><rect class="cls-44" x="610.99" y="0.91" width="2.9" height="104.19"/><rect class="cls-45" x="613.89" y="0.91" width="1.49" height="104.19"/></g><g class="cls-46"><rect class="cls-47" x="625.55" y="0.91" width="2.83" height="104.04"/><rect class="cls-48" x="628.38" y="0.91" width="2.9" height="104.04"/><rect class="cls-49" x="631.28" y="0.91" width="2.9" height="104.04"/><rect class="cls-50" x="634.18" y="0.91" width="2.9" height="104.04"/><rect class="cls-51" x="637.08" y="0.91" width="2.9" height="104.04"/><rect class="cls-52" x="639.97" y="0.91" width="2.9" height="104.04"/><rect class="cls-53" x="642.87" y="0.91" width="2.9" height="104.04"/><rect class="cls-54" x="645.77" y="0.91" width="2.9" height="104.04"/><rect class="cls-55" x="648.67" y="0.91" width="2.9" height="104.04"/><rect class="cls-56" x="651.57" y="0.91" width="2.9" height="104.04"/><rect class="cls-57" x="654.47" y="0.91" width="2.9" height="104.04"/><rect class="cls-58" x="657.37" y="0.91" width="2.9" height="104.04"/><rect class="cls-59" x="660.26" y="0.91" width="2.9" height="104.04"/><rect class="cls-60" x="663.16" y="0.91" width="2.9" height="104.04"/><rect class="cls-61" x="666.06" y="0.91" width="2.9" height="104.04"/><rect class="cls-62" x="668.96" y="0.91" width="2.9" height="104.04"/><rect class="cls-63" x="671.86" y="0.91" width="2.9" height="104.04"/><rect class="cls-64" x="674.76" y="0.91" width="2.9" height="104.04"/><rect class="cls-65" x="677.66" y="0.91" width="2.9" height="104.04"/><rect class="cls-66" x="680.55" y="0.91" width="2.9" height="104.04"/><rect class="cls-67" x="683.45" y="0.91" width="2.9" height="104.04"/><rect class="cls-68" x="686.35" y="0.91" width="2.9" height="104.04"/><rect class="cls-69" x="689.25" y="0.91" width="2.9" height="104.04"/><rect class="cls-70" x="692.15" y="0.91" width="2.9" height="104.04"/><rect class="cls-71" x="695.05" y="0.91" width="2.9" height="104.04"/><rect class="cls-72" x="697.95" y="0.91" width="2.9" height="104.04"/><rect class="cls-73" x="700.84" y="0.91" width="2.9" height="104.04"/><rect class="cls-74" x="703.74" y="0.91" width="2.9" height="104.04"/><rect class="cls-75" x="706.64" y="0.91" width="2.9" height="104.04"/><rect class="cls-76" x="709.54" y="0.91" width="2.9" height="104.04"/><rect class="cls-76" x="712.44" y="0.91" width="46.07" height="104.04"/></g><g class="cls-77"><path class="cls-78" d="M20.67,23.54v0Z" transform="translate(-19.91 -22.78)"/><rect class="cls-78" x="0.76" y="0.76" width="13.72" height="18.6"/><rect class="cls-79" x="14.48" y="0.76" width="13.72" height="18.6"/><rect class="cls-80" x="28.2" y="0.76" width="13.72" height="18.6"/><rect class="cls-81" x="41.92" y="0.76" width="13.72" height="18.6"/><rect class="cls-82" x="55.64" y="0.76" width="13.72" height="18.6"/><rect class="cls-83" x="69.36" y="0.76" width="13.72" height="18.6"/><rect class="cls-84" x="83.08" y="0.76" width="13.72" height="18.6"/><rect class="cls-85" x="96.8" y="0.76" width="13.72" height="18.6"/><rect class="cls-86" x="110.52" y="0.76" width="13.72" height="18.6"/><rect class="cls-87" x="124.24" y="0.76" width="9.35" height="18.6"/></g><g class="cls-88"><rect class="cls-82" x="56.85" y="19.36" width="12.51" height="85.59"/><rect class="cls-83" x="69.36" y="19.36" width="8.14" height="85.59"/></g><path class="cls-89" d="M154.26,42.9H19.91V22.78H154.26ZM21.43,41.38H152.74V24.3H21.43Z" transform="translate(-19.91 -22.78)"/><path class="cls-90" d="M98.17,128.49H76V40.31L98.17,62.48ZM77.52,127H96.65V63.11L77.52,44Z" transform="translate(-19.91 -22.78)"/><path class="cls-91" d="M305.77,128.49H280.7L255.76,85.84H191.87v42.65H169.69V65.58H271.54c6.34,0,10.6-5.87,10.6-11.34S277.88,43,271.54,43H169.69V22.78H271.54c22.26,0,32.64,18.77,32.64,31.46,0,11.85-7.39,25.85-23.88,30.39l-.08,0ZM281.57,127h21.56L277.92,83.73l2-.56c15.73-4.33,22.77-17.65,22.77-28.93,0-12.08-9.89-29.94-31.12-29.94H171.21V41.52H271.54c7.25,0,12.12,6.58,12.12,12.72S278.79,67.1,271.54,67.1H171.21V127h19.14V84.32h66.28Z" transform="translate(-19.91 -22.78)"/><path class="cls-92" d="M335.45,128.49H313.27V22.93h22.18ZM314.79,127h19.14V24.45H314.79Z" transform="translate(-19.91 -22.78)"/><path class="cls-93" d="M490.31,128.64H461.7L420.75,83l18-11.76Zm-27.93-1.52H486.9L438.45,73.23,423.06,83.31Zm-86.94,1.52H353.26V22.93h22.18V75l79.29-52h37.75l-117,76.88Zm-20.66-1.52h19.14V99l.34-.22L487.39,24.45h-32.2L373.92,77.78V24.45H354.78Z" transform="translate(-19.91 -22.78)"/><path class="cls-94" d="M601.2,128.64H536.56a35.73,35.73,0,0,1-30-16.43l-2.35-3.84h97c7.91,0,12.81-7,12.81-13.55V56.6C614,50.08,609.11,43,601.2,43H536.56c-7.92,0-12.82,7-12.82,13.56V97.06h-22V56.6c0-13.58,11.08-33.67,34.85-33.67H601.2C625,22.93,636.05,43,636.05,56.6V94.82C636.05,108.46,625,128.64,601.2,128.64Zm-94.28-18.75.92,1.51a34.22,34.22,0,0,0,28.72,15.72H601.2c22.73,0,33.33-19.28,33.33-32.3V56.6c0-13-10.6-32.15-33.33-32.15H536.56c-22.74,0-33.33,19.18-33.33,32.15V95.54h19V56.6c0-7.25,5.48-15.08,14.34-15.08H601.2c8.85,0,14.33,7.83,14.33,15.08V94.82c0,7.25-5.48,15.07-14.33,15.07Z" transform="translate(-19.91 -22.78)"/><path class="cls-95" d="M768.09,128.49A11.36,11.36,0,0,1,761,126.1L666.88,54.44v74.05H644.7V33.13a10.69,10.69,0,0,1,11.09-10.2A12.13,12.13,0,0,1,663,25.29L757.15,97v-74h22v95.35A10.69,10.69,0,0,1,768.09,128.49ZM665.36,51.37l96.55,73.54a9.85,9.85,0,0,0,6.18,2.06,9.16,9.16,0,0,0,9.57-8.69V24.45h-19V100L662.12,26.51a10.58,10.58,0,0,0-6.33-2.06,9.16,9.16,0,0,0-9.57,8.68V127h19.14Z" transform="translate(-19.91 -22.78)"/></svg>